<?xml version="1.0" encoding="utf-8"?>
<!-- Generator: Adobe Illustrator 16.0.0, SVG Export Plug-In . SVG Version: 6.00 Build 0)  -->
<!DOCTYPE svg PUBLIC "-//W3C//DTD SVG 1.1//EN" "http://www.w3.org/Graphics/SVG/1.1/DTD/svg11.dtd">
<svg version="1.1" id="图层_1" xmlns="http://www.w3.org/2000/svg" xmlns:xlink="http://www.w3.org/1999/xlink" x="0px" y="0px"
	 width="400px" height="600px" viewBox="0 0 400 600" enable-background="new 0 0 400 600" xml:space="preserve">
<g display="none">
	<path display="inline" fill="none" stroke="#010202" stroke-miterlimit="10" d="M199.442,107.763
		c20.364,0,63.735-0.022,96.491,26.556c20.172,16.369,37.77,44.167,43.377,80.996c5.25,34.527,5.436,54.431,4.426,72.588
		c-1.02,18.258-3.93,46.915-5.697,54.883c-1.771,7.974-10.812,54.058-21.08,73.693c-11.854,22.67-45.121,50.238-59.576,58.687
		c-17.585,10.279-24.36,16.08-34.517,18.824c-8.187,2.215-14.142,3.394-23.424,3.159"/>
	<path display="inline" fill="none" stroke="#010202" stroke-miterlimit="10" d="M199.442,107.763
		c-20.358,0-63.731-0.022-96.487,26.556c-20.171,16.369-37.772,44.167-43.375,80.996c-5.253,34.527-5.438,54.431-4.427,72.588
		c1.02,18.258,3.931,46.915,5.7,54.883c1.77,7.974,10.812,54.058,21.08,73.693c11.853,22.67,45.119,50.238,59.577,58.687
		c17.584,10.279,24.36,16.08,34.512,18.824c8.191,2.215,14.143,3.394,23.421,3.159"/>
</g>
<g id="_x31_" display="none">
	<path display="inline" fill="none" stroke="#010202" stroke-miterlimit="10" d="M199.08,108.074
		c20.314,0,63.577-0.022,96.248,26.49c20.122,16.327,37.678,44.055,43.268,80.791c5.238,34.441,5.424,54.296,4.417,72.406
		c-1.019,18.211-3.922,46.797-5.682,54.746c-1.768,7.954-10.786,53.923-21.028,73.511c-11.826,22.611-45.009,50.11-59.427,58.538
		c-17.541,10.251-24.299,16.039-34.43,18.775c-8.167,2.208-14.107,3.387-23.366,3.151"/>
	<path display="inline" fill="none" stroke="#010202" stroke-miterlimit="10" d="M199.08,108.074
		c-20.308,0-63.572-0.022-96.246,26.49c-20.122,16.327-37.676,44.055-43.265,80.791c-5.241,34.441-5.427,54.296-4.418,72.406
		c1.018,18.211,3.92,46.797,5.685,54.746c1.765,7.954,10.787,53.923,21.028,73.511c11.822,22.611,45.005,50.11,59.427,58.538
		c17.541,10.251,24.3,16.039,34.427,18.775c8.169,2.208,14.106,3.387,23.362,3.151"/>
</g>
<g id="_x32_" display="none">
	<path display="inline" fill="none" stroke="#010202" stroke-miterlimit="10" d="M199.08,108.074
		c20.314,0,63.577-0.022,96.248,26.49c20.122,16.327,37.678,44.055,43.268,80.791c5.238,34.441,5.424,54.296,4.417,72.406
		c-1.019,18.211-3.922,46.797-5.682,54.746c-1.768,7.954-6.802,41.442-15.952,61.563c-12.364,27.18-69.074,68.085-78.492,74.802
		c-7.466,5.317-20.627,17.695-43.806,17.61"/>
	<g display="inline">
		<path fill="none" stroke="#010202" stroke-miterlimit="10" d="M199.08,108.074c-20.308,0-63.572-0.022-96.246,26.49
			c-20.122,16.327-37.676,44.055-43.265,80.791c-5.241,34.441-5.427,54.296-4.418,72.406c1.018,18.211,3.92,46.797,5.685,54.746
			c1.765,7.954,6.801,41.442,15.949,61.563c12.363,27.18,69.074,68.085,78.492,74.802c7.462,5.317,20.626,17.695,43.803,17.61"/>
	</g>
</g>
<g id="_x33_">
	<path fill="none" stroke="#010202" stroke-miterlimit="10" d="M199.08,108.074c20.314,0,63.577-0.022,96.248,26.49
		c20.122,16.327,37.678,44.055,43.268,80.791c5.238,34.441,5.424,54.296,4.417,72.406c-1.019,18.211-3.922,46.797-5.682,54.746
		c-1.768,7.954-4.917,28.698-23.017,61.811c-17.578,32.144-36.713,49.449-55.619,64.162c-22.319,17.384-44.38,28.011-59.615,28.003"
		/>
	<path fill="none" stroke="#010202" stroke-miterlimit="10" d="M199.08,108.074c-20.308,0-63.572-0.022-96.246,26.49
		c-20.122,16.327-37.676,44.055-43.265,80.791c-5.241,34.441-5.427,54.296-4.418,72.406c1.018,18.211,3.92,46.797,5.685,54.746
		c1.765,7.954,4.91,28.698,23.015,61.811c17.573,32.144,36.707,49.449,55.615,64.162c22.325,17.384,44.385,28.011,59.614,28.003"/>
</g>
<g id="_x34_" display="none">
	<path display="inline" fill="none" stroke="#010202" stroke-miterlimit="10" d="M199.08,108.074
		c20.314,0,63.577-0.022,96.248,26.49c20.122,16.327,37.678,44.055,43.268,80.791c5.238,34.441,5.424,54.296,4.417,72.406
		c-1.019,18.211-3.922,46.797-5.682,54.746c-1.768,7.954-8.005,31.615-28.757,63.137c-17.67,26.84-36.278,47.537-55.188,62.25
		c-22.318,17.376-39.07,28.597-54.305,28.589"/>
	<g display="inline">
		<path fill="none" stroke="#010202" stroke-miterlimit="10" d="M199.08,108.074c-20.308,0-63.572-0.022-96.246,26.49
			c-20.122,16.327-37.676,44.055-43.265,80.791c-5.241,34.441-5.427,54.296-4.418,72.406c1.018,18.211,3.92,46.797,5.685,54.746
			c1.765,7.954,8.001,31.615,28.753,63.137c17.667,26.84,36.281,47.537,55.189,62.25c22.319,17.376,39.072,28.597,54.301,28.589"/>
	</g>
</g>
<g id="_x35_" display="none">
	<path display="inline" fill="none" stroke="#010202" stroke-miterlimit="10" d="M199.08,108.074
		c20.314,0,63.577-0.022,96.248,26.49c20.122,16.327,37.678,44.055,43.268,80.791c5.238,34.441,5.424,54.296,4.417,72.406
		c-1.019,18.211-3.922,46.797-5.682,54.746c-1.768,7.954-11.505,53.561-21.028,73.511c-11.7,24.502-36.865,50.992-54.528,61.587
		c-24.258,14.556-53.436,19.113-62.694,18.878"/>
	<path display="inline" fill="none" stroke="#010202" stroke-miterlimit="10" d="M199.08,108.074
		c-20.308,0-63.572-0.022-96.246,26.49c-20.122,16.327-37.676,44.055-43.265,80.791c-5.241,34.441-5.427,54.296-4.418,72.406
		c1.018,18.211,3.92,46.797,5.685,54.746c1.765,7.954,11.504,53.561,21.028,73.511c11.699,24.502,36.866,50.992,54.523,61.587
		c24.258,14.556,53.437,19.113,62.693,18.878"/>
</g>
<g id="_x36_" display="none">
	<path display="inline" fill="none" stroke="#010202" stroke-miterlimit="10" d="M199.03,109.522
		c20.292,0,63.508-0.022,96.148,26.46c20.097,16.312,37.634,44.011,43.225,80.709c5.232,34.405,5.412,54.236,4.412,72.328
		c-1.016,18.196-4.67,46.629-5.682,54.695c-3.13,24.857-1.945,67.318-13.732,89.306c-18.838,35.172-92.615,64.578-124.371,64.506"/>
	<path display="inline" fill="none" stroke="#010202" stroke-miterlimit="10" d="M199.03,109.522
		c-20.285,0-63.503-0.022-96.143,26.46c-20.099,16.312-37.637,44.011-43.22,80.709c-5.236,34.405-5.421,54.236-4.413,72.328
		c1.016,18.196,4.665,46.629,5.682,54.695c3.126,24.857,1.939,67.318,13.723,89.306c18.849,35.172,92.62,64.578,124.371,64.506"/>
</g>
<g id="_x31_3_1_" display="none">
	<g id="_x31_2_2_" display="inline">
		<path fill="none" stroke="#010202" stroke-miterlimit="10" d="M199.188,107.729c20.316,0,63.613-0.022,96.299,26.509
			c20.137,16.336,37.702,44.081,43.3,80.842c5.246,34.462,5.431,54.331,4.412,72.454c-1.014,18.215-4.665,46.698-5.687,54.781
			c-3.124,24.898-11.22,68.753-23.021,90.778c-10.324,19.271-32.751,34.352-55.228,45.721
			c-12.748,6.447-30.478,17.569-60.077,17.569"/>
	</g>
	<g id="_x31_2_4_" display="inline">
		<path fill="none" stroke="#010202" stroke-miterlimit="10" d="M199.188,107.729c-20.326,0-63.62-0.022-96.312,26.509
			c-20.137,16.336-37.701,44.081-43.295,80.842c-5.24,34.462-5.426,54.331-4.412,72.454c1.015,18.215,4.667,46.698,5.684,54.781
			c3.134,24.898,11.223,68.753,23.026,90.778c10.32,19.271,32.748,34.352,55.224,45.721c12.752,6.447,30.479,17.569,60.084,17.569"
			/>
	</g>
</g>
<g id="_x31_2_1_" display="none">
	<path display="inline" fill="none" stroke="#010202" stroke-miterlimit="10" d="M199.026,107.685
		c-20.292,0-63.525-0.022-96.165,26.468c-20.103,16.312-37.649,44.021-43.232,80.722c-5.237,34.414-5.42,54.253-4.412,72.352
		c1.015,18.187,4.665,46.632,5.679,54.698c3.127,24.863,11.207,68.659,22.997,90.651c10.3,19.233,40.14,38.589,62.639,44.769
		c21.863,5.998,38.1,18.457,52.495,18.421"/>
	<g id="_x31_2_3_" display="inline">
		<path fill="none" stroke="#010202" stroke-miterlimit="10" d="M199.026,107.685c20.292,0,63.522-0.022,96.166,26.468
			c20.108,16.312,37.653,44.021,43.234,80.722c5.231,34.414,5.417,54.253,4.407,72.352c-1.014,18.187-4.661,46.632-5.675,54.698
			c-3.123,24.863-11.203,68.659-22.992,90.651c-10.308,19.233-40.148,38.589-62.64,44.769c-21.865,5.998-38.1,18.457-52.5,18.421"/>
	</g>
</g>
<g id="_x31_1_1_" display="none">
	<path display="inline" fill="none" stroke="#010202" stroke-miterlimit="10" d="M199.278,107.7c20.269,0,63.46-0.022,96.08,26.444
		c20.075,16.298,37.605,43.977,43.184,80.648c5.237,34.38,5.417,54.199,4.41,72.28c-1.021,18.176-4.659,46.587-5.675,54.649
		c-3.129,24.842-7.234,67.261-19.006,89.246c-18.834,35.133-87.266,64.525-118.993,64.449"/>
	<path display="inline" fill="none" stroke="#010202" stroke-miterlimit="10" d="M199.278,107.7
		c-20.277,0-63.467-0.022-96.08,26.444c-20.083,16.298-37.608,43.977-43.188,80.648c-5.235,34.38-5.418,54.199-4.406,72.28
		c1.011,18.176,4.662,46.587,5.67,54.649c3.127,24.842,7.23,67.261,19.008,89.246c18.832,35.133,87.259,64.525,118.996,64.449"/>
</g>
<g id="_x31_0" display="none">
	<path display="inline" fill="none" stroke="#010202" stroke-miterlimit="10" d="M199.367,107.793
		c20.284,0,63.505-0.022,96.139,26.458c20.092,16.31,37.637,44.006,43.219,80.702c5.235,34.401,5.418,54.232,4.409,72.324
		c-1.017,18.185-3.915,46.741-5.678,54.682c-1.764,7.939-4.907,21.735-10.643,37.68c-10.092,28.064-82.904,116.119-127.446,116.119"
		/>
	<path display="inline" fill="none" stroke="#010202" stroke-miterlimit="10" d="M199.367,107.793
		c-20.289,0-63.503-0.022-96.14,26.458c-20.097,16.31-37.631,44.006-43.214,80.702c-5.234,34.401-5.421,54.232-4.412,72.324
		c1.014,18.185,3.914,46.741,5.679,54.682c1.765,7.939,4.907,21.735,10.643,37.68c10.088,28.064,82.905,116.119,127.444,116.119"/>
</g>
<g id="_x39_" display="none">
	<path display="inline" fill="none" stroke="#010202" stroke-miterlimit="10" d="M199.431,107.25
		c20.289,0,63.53-0.022,96.176,26.474c20.101,16.316,37.654,44.025,43.242,80.732c5.229,34.416,5.414,54.255,4.409,72.357
		c-1.019,18.194-3.916,46.758-5.687,54.706c-1.76,7.94-4.906,21.744-10.641,37.692c-10.099,28.08-70.349,91.859-79.76,98.576
		c-7.456,5.309-24.575,17.685-47.74,17.589"/>
	<g display="inline">
		<path fill="none" stroke="#010202" stroke-miterlimit="10" d="M199.431,107.25c-20.299,0-63.53-0.022-96.179,26.474
			c-20.107,16.316-37.65,44.025-43.239,80.732c-5.238,34.416-5.421,54.255-4.406,72.357c1.008,18.194,3.914,46.758,5.676,54.706
			c1.768,7.94,3.566,16.211,10.646,37.692c9.334,28.336,70.347,91.859,79.756,98.576c7.461,5.309,24.582,17.685,47.746,17.589"/>
	</g>
</g>
<g id="_x38_" display="none">
	<path display="inline" fill="none" stroke="#010202" stroke-miterlimit="10" d="M199.089,108.248
		c20.265,0,63.442-0.022,96.044,26.436c20.073,16.292,37.602,43.964,43.176,80.617c5.231,34.372,5.417,54.187,4.403,72.256
		c-1.014,18.173-3.906,46.695-5.67,54.632c-1.763,7.927-8.87,28.633-26.932,61.675c-17.541,32.085-36.631,49.35-55.5,64.041
		c-22.279,17.334-40.323,27.944-55.521,27.933"/>
	<path display="inline" fill="none" stroke="#010202" stroke-miterlimit="10" d="M199.089,108.248
		c-20.269,0-63.44-0.022-96.042,26.436c-20.083,16.292-37.601,43.964-43.181,80.617c-5.226,34.372-5.412,54.187-4.403,72.256
		c1.008,18.173,3.908,46.695,5.672,54.632c1.759,7.927,8.866,28.633,26.929,61.675c17.534,32.085,36.632,49.35,55.501,64.041
		c22.273,17.334,40.321,27.944,55.523,27.933"/>
</g>
<g id="_x37_" display="none">
	<path display="inline" fill="none" stroke="#010202" stroke-miterlimit="10" d="M199.038,107.573
		c20.301,0,63.534-0.022,96.186,26.475c20.115,16.315,37.654,44.027,43.239,80.737c5.237,34.419,5.424,54.265,4.42,72.361
		c-1.021,18.197-3.927,46.771-5.682,54.717c-1.772,7.934-4.91,28.361-10.646,44.308c-10.111,28.081-74.334,85.247-83.736,91.964
		c-7.466,5.313-20.622,17.688-43.782,17.598"/>
	<g display="inline">
		<path fill="none" stroke="#010202" stroke-miterlimit="10" d="M199.038,107.573c-20.295,0-63.533-0.022-96.183,26.475
			c-20.109,16.315-37.656,44.027-43.244,80.737c-5.234,34.419-5.42,54.265-4.412,72.361c1.015,18.197,3.92,46.771,5.685,54.717
			c1.765,7.934,3.566,22.817,10.646,44.308c9.334,28.344,74.323,85.247,83.733,91.964c7.459,5.313,20.611,17.688,43.775,17.598"/>
	</g>
</g>
</svg>
